<?xml version="1.0" encoding="UTF-8"?>
<svg version="1.1" xmlns="http://www.w3.org/2000/svg" width="512" height="512">
<path d="M0 0 C6.82473177 5.42176967 13.85051646 11.38307362 16.75 19.8125 C17.41 19.8125 18.07 19.8125 18.75 19.8125 C19.12898438 18.71035156 19.12898438 18.71035156 19.515625 17.5859375 C23.90194088 7.73060751 34.18563967 2.57502555 43.75 -1.1875 C60.93169152 -6.71159075 80.66863126 -5.72171646 97 1.9375 C114.75167124 11.52380273 126.11755021 26.71106741 132.03515625 45.78515625 C133.94484451 52.3980776 135.26804424 58.94463043 135.75 65.8125 C136.925625 65.750625 138.10125 65.68875 139.3125 65.625 C155.68701937 65.67641136 173.60159477 71.58667706 185.8125 82.6875 C194.5953767 92.07609233 199.11739345 105.06636726 199.75 117.8125 C199.64579062 119.97544649 199.51148549 122.13704725 199.35546875 124.296875 C197.81575761 137.92145807 197.81575761 137.92145807 202.58203125 150.06640625 C205.46238841 152.72886781 208.63832452 154.82940617 212.02783203 156.78955078 C214.3090189 158.14455121 216.22379467 159.78544389 218.1875 161.5625 C218.79207031 162.10132813 219.39664062 162.64015625 220.01953125 163.1953125 C230.24980674 172.75588598 236.3299299 184.86308206 236.96484375 198.91015625 C237.34515465 212.0043163 236.51675116 225.32269408 227.75 235.8125 C223.39803909 239.57345387 219.46494852 241.91859768 213.75 242.8125 C214.5531559 267.54416257 219.92071037 290.05264168 226.59033203 313.80517578 C234.52730053 342.08862189 234.52730053 342.08862189 228.75 352.8125 C223.16218119 359.76385355 215.47831295 363.29047875 206.75244141 364.37744141 C205.22377197 364.54295061 203.69423181 364.70054785 202.1640625 364.8515625 C201.32885574 364.93582993 200.49364899 365.02009735 199.63313293 365.10691833 C190.24808526 366.01356642 180.85690692 366.50002313 171.4375 366.875 C169.95339127 366.93611969 169.95339127 366.93611969 168.43930054 366.99847412 C145.48957712 367.91802161 122.52723494 368.17594222 99.5625 368.4375 C98.66838284 368.44787922 97.77426567 368.45825844 96.85305405 368.46895218 C52.2147442 368.98433895 7.58644105 368.86642111 -37.05186844 368.40904617 C-40.43764121 368.37435823 -43.82341917 368.34021269 -47.209198 368.30612183 C-118.19427897 367.58735603 -118.19427897 367.58735603 -144.25 366.8125 C-145.79059082 366.76672821 -145.79059082 366.76672821 -147.36230469 366.72003174 C-153.82442947 366.52339336 -160.2852302 366.30281783 -166.74557495 366.05441284 C-168.74798116 365.97808003 -170.75052561 365.90526909 -172.75320435 365.8364563 C-199.58853512 364.89030644 -199.58853512 364.89030644 -206.25 357.8125 C-212.3023018 349.16635457 -210.92383948 338.10999986 -209.33544922 328.13134766 C-208.92113049 325.82745075 -208.49371011 323.52587981 -208.0546875 321.2265625 C-207.82639252 319.97746094 -207.59809753 318.72835938 -207.36288452 317.44140625 C-206.87743365 314.79559118 -206.38772839 312.15106827 -205.88977051 309.50762939 C-205.11624582 305.4011747 -204.36139384 301.29141281 -203.60839844 297.18115234 C-201.51027249 285.75606199 -199.36657268 274.33994642 -197.1484375 262.9375 C-196.92793228 261.79587906 -196.92793228 261.79587906 -196.70297241 260.63119507 C-196.06338024 257.32035683 -195.41326631 254.01327724 -194.73779297 250.70947266 C-193.17574056 242.75815182 -192.51093761 236.78199479 -197.1875 229.75 C-203.2240454 220.59877515 -203.57339751 210.94458238 -201.59765625 200.296875 C-199.36552418 192.21138371 -195.69461909 184.62954231 -189.23046875 179.078125 C-186.37253754 175.80869679 -185.40721965 172.20689324 -184.0625 168.125 C-178.74123947 152.91574736 -172.30862113 136.20701804 -157.0703125 128.8203125 C-149.42241252 126.08740641 -142.26914191 125.54127683 -134.1875 125.6875 C-133.22650391 125.69652344 -132.26550781 125.70554688 -131.27539062 125.71484375 C-128.93332195 125.73814792 -126.59180208 125.77085942 -124.25 125.8125 C-124.14429687 124.9565625 -124.03859375 124.100625 -123.9296875 123.21875 C-120.44111115 105.73576965 -104.70858617 88.72763399 -90.625 78.875 C-87.27131284 76.37139003 -87.27131284 76.37139003 -85.84375 72.65234375 C-86.09638436 70.26502268 -86.09638436 70.26502268 -86.66015625 67.7578125 C-89.86769915 51.74134002 -85.70909715 34.53895163 -77.25 20.8125 C-68.89825971 8.62687893 -58.27803135 0.3882599 -45.25 -6.1875 C-44.11304688 -6.76371094 -44.11304688 -6.76371094 -42.953125 -7.3515625 C-28.42464557 -13.37693963 -12.16161541 -8.64962307 0 0 Z " fill="#F7F3EB" transform="translate(240.25,52.1875)"/>
<path d="M0 0 C4.77158974 2.81035364 8.61004982 6.5364813 12.48046875 10.4609375 C13.02316406 10.99332031 13.56585938 11.52570313 14.125 12.07421875 C26.15969073 24.90459151 41.48046875 52.8746918 41.48046875 70.4609375 C43.46046875 70.4609375 45.44046875 70.4609375 47.48046875 70.4609375 C47.48046875 147.3509375 47.48046875 224.2409375 47.48046875 303.4609375 C30.32046875 303.4609375 13.16046875 303.4609375 -4.51953125 303.4609375 C-5.17953125 299.5009375 -5.83953125 295.5409375 -6.51953125 291.4609375 C-6.90412101 289.35753298 -7.29629042 287.25546544 -7.703125 285.15625 C-7.90873047 284.07601563 -8.11433594 282.99578125 -8.32617188 281.8828125 C-8.73939672 279.72329689 -9.15593989 277.56441299 -9.57617188 275.40625 C-10.8974561 268.42525921 -11.95413411 261.44859229 -12.8828125 254.40625 C-14.53352182 241.93532458 -16.56463461 229.53338612 -18.62115479 217.12384033 C-19.28287323 213.13041966 -19.94040893 209.13632802 -20.59716797 205.14208984 C-22.61415081 192.88694552 -24.65229514 180.63556418 -26.73046875 168.390625 C-27.06025952 166.44043614 -27.39001347 164.49024106 -27.71972656 162.54003906 C-28.31903496 158.99651298 -28.9261107 155.45444391 -29.53808594 151.91308594 C-29.80558641 150.3379327 -30.07285429 148.76273994 -30.33984375 147.1875 C-30.46120697 146.49864716 -30.58257019 145.80979431 -30.70761108 145.10006714 C-31.44048728 140.72783237 -31.51953125 136.99575506 -31.51953125 132.4609375 C-38.11953125 132.4609375 -44.71953125 132.4609375 -51.51953125 132.4609375 C-51.33015991 134.60831421 -51.33015991 134.60831421 -51.13696289 136.79907227 C-49.82112699 151.98723044 -48.82012631 167.17854846 -47.95703125 182.3984375 C-47.76837624 185.71116135 -47.57876057 189.02381707 -47.38624573 192.33631897 C-47.26817515 194.36860666 -47.15223996 196.40102009 -47.03892517 198.43357849 C-46.75313752 203.3606265 -46.34069097 208.23981024 -45.76506042 213.14076233 C-45.28371829 217.68929739 -45.03984692 222.2554436 -44.765625 226.8203125 C-44.70045181 227.88654846 -44.63527863 228.95278442 -44.56813049 230.05133057 C-44.43169268 232.29684438 -44.29645376 234.54243132 -44.16235352 236.78808594 C-43.9584587 240.18714104 -43.74798574 243.5857468 -43.53710938 246.984375 C-43.21410146 252.25281558 -42.92563789 257.52216347 -42.6618042 262.79388428 C-42.53865965 265.10235595 -42.38421144 267.40569079 -42.21923828 269.71142578 C-41.80260827 278.39389628 -41.80260827 278.39389628 -45.08203125 282.109375 C-46.19641539 283.05652753 -47.34419142 283.96557768 -48.51953125 284.8359375 C-49.11241943 285.32578125 -49.70530762 285.815625 -50.31616211 286.3203125 C-51.49221984 287.28869877 -52.68073479 288.2421926 -53.88232422 289.17871094 C-56.02447988 290.85640279 -58.05181413 292.65030743 -60.08203125 294.4609375 C-60.69175781 294.98816406 -61.30148438 295.51539063 -61.9296875 296.05859375 C-63.87882547 297.77785796 -65.71988131 299.58630215 -67.51953125 301.4609375 C-67.18953125 302.1209375 -66.85953125 302.7809375 -66.51953125 303.4609375 C-127.89953125 303.4609375 -189.27953125 303.4609375 -252.51953125 303.4609375 C-251.39674249 292.23304988 -251.39674249 292.23304988 -250.65234375 288.41015625 C-250.49056641 287.55808594 -250.32878906 286.70601563 -250.16210938 285.828125 C-249.99130859 284.94382812 -249.82050781 284.05953125 -249.64453125 283.1484375 C-248.25814909 275.7710826 -247.03113912 268.39885821 -246.01953125 260.9609375 C-244.91103751 252.83325404 -243.51884004 244.78804768 -242.0065918 236.7265625 C-240.33527553 227.70548194 -239.05607933 218.64162217 -237.81738281 209.55273438 C-237.56026875 207.74703493 -237.26422567 205.94695757 -236.9609375 204.1484375 C-236.04873279 198.59448315 -235.46488226 194.25384078 -238.39453125 189.2734375 C-242.08510392 185.45449708 -246.90158348 182.98960016 -251.51953125 180.4609375 C-250.06220181 176.6556884 -248.36311369 175.61094943 -244.76953125 173.8359375 C-238.88977415 170.5015298 -236.51590943 166.35101423 -233.51953125 160.4609375 C-231.984375 157.65234375 -231.984375 157.65234375 -230.51953125 155.4609375 C-229.85953125 155.4609375 -229.19953125 155.4609375 -228.51953125 155.4609375 C-227.52953125 147.8709375 -226.53953125 140.2809375 -225.51953125 132.4609375 C-210.99953125 132.1309375 -196.47953125 131.8009375 -181.51953125 131.4609375 C-180.19953125 126.5109375 -178.87953125 121.5609375 -177.51953125 116.4609375 C-171.12739447 96.13911536 -161.43984156 74.30555434 -142.14453125 63.5859375 C-134.73496746 61.2864177 -128.12831302 61.86301337 -121.04296875 64.9921875 C-114.40508774 68.85572196 -109.17832233 74.43003671 -104.51953125 80.4609375 C-103.85953125 77.1609375 -103.19953125 73.8609375 -102.51953125 70.4609375 C-89.64953125 70.4609375 -76.77953125 70.4609375 -63.51953125 70.4609375 C-62.19953125 65.1809375 -60.87953125 59.9009375 -59.51953125 54.4609375 C-58.51532216 51.25773039 -57.51004887 48.15361903 -56.33203125 45.0234375 C-56.03941406 44.24049316 -55.74679687 43.45754883 -55.4453125 42.65087891 C-49.00250799 25.9633441 -39.80210098 7.43845067 -23.14453125 -1.0390625 C-15.39452939 -4.05819366 -7.51121374 -3.36750759 0 0 Z " fill="#FED2BB" transform="translate(315.51953125,83.5390625)"/>
<path d="M0 0 C4.77158974 2.81035364 8.61004982 6.5364813 12.48046875 10.4609375 C13.02316406 10.99332031 13.56585938 11.52570313 14.125 12.07421875 C26.15969073 24.90459151 41.48046875 52.8746918 41.48046875 70.4609375 C43.46046875 70.4609375 45.44046875 70.4609375 47.48046875 70.4609375 C47.48046875 147.3509375 47.48046875 224.2409375 47.48046875 303.4609375 C30.32046875 303.4609375 13.16046875 303.4609375 -4.51953125 303.4609375 C-5.17953125 299.5009375 -5.83953125 295.5409375 -6.51953125 291.4609375 C-6.90412101 289.35753298 -7.29629042 287.25546544 -7.703125 285.15625 C-7.90873047 284.07601563 -8.11433594 282.99578125 -8.32617188 281.8828125 C-8.73939672 279.72329689 -9.15593989 277.56441299 -9.57617188 275.40625 C-10.8974561 268.42525921 -11.95413411 261.44859229 -12.8828125 254.40625 C-14.53352182 241.93532458 -16.56463461 229.53338612 -18.62115479 217.12384033 C-19.28287323 213.13041966 -19.94040893 209.13632802 -20.59716797 205.14208984 C-22.61415081 192.88694552 -24.65229514 180.63556418 -26.73046875 168.390625 C-27.06025952 166.44043614 -27.39001347 164.49024106 -27.71972656 162.54003906 C-28.31903496 158.99651298 -28.9261107 155.45444391 -29.53808594 151.91308594 C-29.80558641 150.3379327 -30.07285429 148.76273994 -30.33984375 147.1875 C-30.46120697 146.49864716 -30.58257019 145.80979431 -30.70761108 145.10006714 C-31.44048728 140.72783237 -31.51953125 136.99575506 -31.51953125 132.4609375 C-51.97953125 132.4609375 -72.43953125 132.4609375 -93.51953125 132.4609375 C-96.81953125 123.5509375 -100.11953125 114.6409375 -103.51953125 105.4609375 C-111.94353213 86.74247618 -111.94353213 86.74247618 -127.51953125 74.4609375 C-132.71237407 73.74730121 -136.97164843 73.74653004 -141.76953125 75.9609375 C-148.0232318 81.64611982 -152.68227471 87.75960163 -156.51953125 95.2734375 C-156.94105469 96.08659424 -157.36257812 96.89975098 -157.796875 97.73754883 C-163.38864258 108.805297 -167.6771406 120.39444256 -170.51953125 132.4609375 C-174.14953125 132.4609375 -177.77953125 132.4609375 -181.51953125 132.4609375 C-176.33881446 109.54388439 -167.77677801 80.5804678 -147.4453125 66.64453125 C-140.35529056 62.28697213 -134.08879596 61.16173111 -126.0078125 63.046875 C-116.8711986 66.17369106 -110.31587407 72.95745262 -104.51953125 80.4609375 C-103.85953125 77.1609375 -103.19953125 73.8609375 -102.51953125 70.4609375 C-89.64953125 70.4609375 -76.77953125 70.4609375 -63.51953125 70.4609375 C-62.19953125 65.1809375 -60.87953125 59.9009375 -59.51953125 54.4609375 C-58.51532216 51.25773039 -57.51004887 48.15361903 -56.33203125 45.0234375 C-56.03941406 44.24049316 -55.74679687 43.45754883 -55.4453125 42.65087891 C-49.00250799 25.9633441 -39.80210098 7.43845067 -23.14453125 -1.0390625 C-15.39452939 -4.05819366 -7.51121374 -3.36750759 0 0 Z " fill="#69B9C8" transform="translate(315.51953125,83.5390625)"/>
<path d="M0 0 C6.93 0 13.86 0 21 0 C23.1016921 12.00705837 24.79593248 23.97107808 26.13540649 36.08456421 C26.65412494 40.76864573 27.18913368 45.45084526 27.7265625 50.1328125 C27.88591026 51.52118568 27.88591026 51.52118568 28.04847717 52.93760681 C29.4835231 65.3210853 31.20637726 77.66370927 33 90 C36.91857604 85.77896232 39.7923849 82.01405129 41.875 76.5625 C42.28492188 75.51191406 42.69484375 74.46132812 43.1171875 73.37890625 C43.40851563 72.59386719 43.69984375 71.80882812 44 71 C46.3515625 71.125 46.3515625 71.125 49 72 C50.3359375 74.625 50.3359375 74.625 51.375 78 C54.84843896 87.95063802 60.2933394 94.1955596 69 100 C69 101.32 69 102.64 69 104 C68.05898438 104.42410156 67.11796875 104.84820312 66.1484375 105.28515625 C56.42825225 109.80614237 50.45503004 113.85243158 46 124 C43.1157546 123.65514457 42.1792182 123.21744593 40.296875 120.93359375 C38.86458333 118.62239583 37.43229167 116.31119792 36 114 C37.31317722 128.24485576 39.03187673 142.41406626 40.91500854 156.59402466 C43.21046235 173.90244383 45.45501871 191.21519518 47.4375 208.5625 C47.52094666 209.28438507 47.60439331 210.00627014 47.69036865 210.75003052 C49.09428004 222.9399139 49.09428004 222.9399139 49 228 C43.19409936 226.1062785 38.61291293 222.35508887 33.74584961 218.78320312 C30.27465245 216.25383244 26.90029011 213.8590063 23.06640625 211.91015625 C17.82273429 209.05156585 14.62942485 207.04563077 12.828125 201.19140625 C12.21886328 196.93543793 12.13502319 192.68269634 12.07714844 188.38867188 C11.98637673 184.40161099 11.75781234 180.43287544 11.5078125 176.453125 C11.43722878 175.32843056 11.43722878 175.32843056 11.36521912 174.18101501 C11.26918558 172.6523971 11.17302932 171.12378689 11.07675171 169.59518433 C10.93997156 167.35301513 10.81484721 165.11054272 10.69458008 162.86743164 C10.28608803 154.69020834 10.28608803 154.69020834 9.50390625 146.54296875 C8.53435302 138.64642317 8.30863952 130.65196126 7.875 122.7109375 C7.29113084 111.85122262 7.29113084 111.85122262 6.21875 101.03125 C5.69787859 96.19458691 5.59633716 91.31922781 5.39453125 86.4609375 C5.22114804 82.59867692 5.00361906 78.77549859 4.53125 74.9375 C3.57809829 66.90278411 3.31601699 58.78706115 2.875 50.7109375 C2.39509417 40.99542741 2.39509417 40.99542741 1.47265625 31.31640625 C0.72193108 25.21804975 0.63648767 19.07349685 0.4375 12.9375 C0.39431641 11.69033203 0.35113281 10.44316406 0.30664062 9.15820312 C0.2013775 6.10557238 0.10026663 3.05279894 0 0 Z " fill="#EE645C" transform="translate(384,154)"/>
<path d="M0 0 C5.28 0 10.56 0 16 0 C16.8688742 7.18269339 17.30532939 14.31348524 17.60546875 21.5390625 C17.77885196 25.40132308 17.99638094 29.22450141 18.46875 33.0625 C19.42190171 41.09721589 19.68398301 49.21293885 20.125 57.2890625 C20.71099137 68.17950954 20.71099137 68.17950954 21.78564453 79.03027344 C22.18689013 82.71734574 22.28932914 86.42072845 22.4375 90.125 C22.7705688 97.60493493 23.3132126 105.04452732 24 112.5 C24.76014544 120.75181645 25.32698516 128.98712897 25.65820312 137.26757812 C25.8094024 140.88093228 26.02649462 144.44853027 26.46484375 148.0390625 C27.30499261 155.16371035 27.59838838 162.3400179 28 169.5 C28.12466991 171.67977545 28.25000774 173.85950851 28.37640381 176.03918457 C28.45869753 177.49039877 28.53736116 178.94182344 28.61236572 180.39343262 C28.8116599 184.17041114 29.07708717 187.92556394 29.45214844 191.68945312 C29.51998535 192.45390747 29.58782227 193.21836182 29.65771484 194.00598145 C29.78838929 195.46009066 29.93887437 196.91260967 30.11279297 198.36218262 C30.44055866 202.27076461 30.11240752 203.84022912 27.82543945 207.09082031 C25.04053181 209.69594579 22.13454724 211.83081639 19 214 C17.09344477 215.57040619 15.19719675 217.1534266 13.3125 218.75 C8.95711823 222.29933133 4.50575918 225.62068061 0 229 C0 153.43 0 77.86 0 0 Z " fill="#ED645C" transform="translate(363,154)"/>
<path d="M0 0 C16.31574709 6.91289686 24.53973366 29.45248523 30.8125 44.6015625 C31.46397011 46.21622766 32.11254855 47.83206344 32.7578125 49.44921875 C33.06235352 50.19703613 33.36689453 50.94485352 33.68066406 51.71533203 C35.06561391 55.21982208 35.7578125 57.6280983 35.7578125 61.44921875 C8.3678125 61.44921875 -19.0221875 61.44921875 -47.2421875 61.44921875 C-42.78565192 40.65205272 -35.21964195 13.92488228 -16.84375 0.7265625 C-11.65282641 -1.82213422 -5.53400191 -1.35939768 0 0 Z " fill="#F6F2EB" transform="translate(310.2421875,92.55078125)"/>
<path d="M0 0 C4.95 0 9.9 0 15 0 C27.93629517 78.52532525 27.93629517 78.52532525 31.7638855 101.96908569 C32.04182828 103.67068179 32.32023468 105.37220223 32.59915161 107.07363892 C33.81414573 114.48828338 35.00194089 121.90212234 36.04296875 129.34375 C37.05487875 136.56494286 38.33990313 143.72526044 39.67578125 150.89257812 C40.59891386 156.01839343 41.21732936 160.79133956 41 166 C38.06307063 164.60516537 35.41573475 163.00837373 32.734375 161.171875 C31.92613281 160.61886719 31.11789062 160.06585938 30.28515625 159.49609375 C29.44855469 158.91988281 28.61195313 158.34367188 27.75 157.75 C26.92886719 157.18925781 26.10773438 156.62851562 25.26171875 156.05078125 C22.83028203 154.38229932 20.41530863 152.69171 18 151 C17.22205078 150.47728516 16.44410156 149.95457031 15.64257812 149.41601562 C14.92005859 148.91263672 14.19753906 148.40925781 13.453125 147.890625 C12.48874512 147.23368652 12.48874512 147.23368652 11.50488281 146.56347656 C8.15813862 143.08642435 8.71084385 137.30926542 8.3515625 132.73828125 C8.29454666 132.01574158 8.23753082 131.2932019 8.17878723 130.54876709 C7.99032407 128.13695985 7.80730279 125.72478027 7.625 123.3125 C7.56063751 122.47419647 7.49627502 121.63589294 7.42996216 120.77218628 C6.1084795 103.49859245 5.0645616 86.20963326 4.09033203 68.91333008 C3.51029113 58.73903373 2.82895176 48.58675706 1.94921875 38.43359375 C1.1856834 29.61924335 0.6268381 20.84581333 0.375 12 C0.31699219 10.23076172 0.31699219 10.23076172 0.2578125 8.42578125 C0.16648165 5.61735771 0.08235389 2.80870111 0 0 Z " fill="#EC655D" transform="translate(269,216)"/>
<path d="M0 0 C4.95 0 9.9 0 15 0 C16.46688688 16.63376704 17.6171153 33.26650885 18.5625 49.9375 C18.75115501 53.25022385 18.94077068 56.56287957 19.13328552 59.87538147 C19.2513561 61.90766916 19.36729129 63.94008259 19.48060608 65.97264099 C19.76639373 70.899689 20.17884028 75.77887274 20.75447083 80.67982483 C21.23581296 85.22835989 21.47968433 89.7945061 21.75390625 94.359375 C21.85166603 95.95872894 21.85166603 95.95872894 21.95140076 97.59039307 C22.08783857 99.83590688 22.22307749 102.08149382 22.35717773 104.32714844 C22.56107255 107.72620354 22.77154551 111.1248093 22.98242188 114.5234375 C23.30542979 119.79187808 23.59389336 125.06122597 23.85772705 130.33294678 C23.9808716 132.64141845 24.13531981 134.94475329 24.30029297 137.25048828 C24.71692298 145.93295878 24.71692298 145.93295878 21.4375 149.6484375 C20.32329029 150.59579521 19.17551376 151.50487512 18 152.375 C17.11175537 153.10650269 17.11175537 153.10650269 16.20556641 153.8527832 C15.02981328 154.81847741 13.84201271 155.76972419 12.64160156 156.70458984 C10.45633519 158.4290133 8.4234256 160.30402253 6.375 162.1875 C4.09226531 164.23598026 2.98657203 165.00447599 0 166 C0 111.22 0 56.44 0 0 Z " fill="#EE635B" transform="translate(249,216)"/>
<path d="M0 0 C9.23188312 3.56344674 15.04885396 12.78232063 19.734375 21.06640625 C24.43635446 31.96513025 19.26844837 49.27522916 18 59 C-2.13 59 -22.26 59 -43 59 C-41.87243963 49.97951707 -41.87243963 49.97951707 -40.46875 46.22265625 C-40.15752197 45.38774658 -39.84629395 44.55283691 -39.52563477 43.69262695 C-39.01794556 42.39071411 -39.01794556 42.39071411 -38.5 41.0625 C-37.96814087 39.69194458 -37.96814087 39.69194458 -37.42553711 38.29370117 C-20.86375788 -3.36234115 -20.86375788 -3.36234115 0 0 Z " fill="#F6F3EB" transform="translate(188,157)"/>
<path d="M0 0 C1.48206495 0.254496 2.96068615 0.52911762 4.4375 0.8125 C5.26121094 0.96332031 6.08492188 1.11414063 6.93359375 1.26953125 C7.95646484 1.63111328 7.95646484 1.63111328 9 2 C10.28181828 5.84545483 9.4640478 7.08300543 8.0078125 10.8203125 C7.3276709 12.57142334 7.3276709 12.57142334 6.63378906 14.35791016 C6.13201599 15.6140694 5.62906257 16.86975772 5.125 18.125 C4.87423706 18.75637878 4.62347412 19.38775757 4.3651123 20.03826904 C-4.28755427 41.77078885 -15.20388727 65.79966178 -37 77 C-44.49412908 79.96956119 -52.48894363 80.38717714 -60.2265625 78.0078125 C-78.17020957 69.80102818 -88.0992913 51.26086346 -95.02832031 33.65576172 C-103 11.8678392 -103 11.8678392 -103 2 C-99.7 2 -96.4 2 -93 2 C-92.73445313 2.94101563 -92.46890625 3.88203125 -92.1953125 4.8515625 C-82.34776173 41.0215173 -82.34776173 41.0215173 -57.05859375 67.12109375 C-52.26242111 69.16879554 -47.0524335 68.75265544 -42.23046875 66.984375 C-37.43884839 64.66368472 -37.43884839 64.66368472 -33.33984375 61.33203125 C-32 60 -32 60 -30 60 C-29.73791748 59.42580322 -29.47583496 58.85160645 -29.20581055 58.26000977 C-27.92274862 55.85521036 -26.4366769 53.94379234 -24.70703125 51.83984375 C-21.14213797 47.31804351 -18.3302549 42.66876381 -15.6875 37.5625 C-15.22819092 36.68376221 -14.76888184 35.80502441 -14.2956543 34.8996582 C-8.59054931 23.66203472 -4.28478082 11.8355637 0 0 Z " fill="#48598B" transform="translate(215,238)"/>
<path d="M0 0 C4.77158974 2.81035364 8.61004982 6.5364813 12.48046875 10.4609375 C13.02316406 10.99332031 13.56585938 11.52570313 14.125 12.07421875 C26.15969073 24.90459151 41.48046875 52.8746918 41.48046875 70.4609375 C38.18046875 70.4609375 34.88046875 70.4609375 31.48046875 70.4609375 C30.86171875 68.9553125 30.24296875 67.4496875 29.60546875 65.8984375 C28.8729644 64.15408391 28.14018899 62.409843 27.40527344 60.66650391 C26.73443787 59.06662838 26.06913938 57.46442753 25.40722656 55.86083984 C15.18132993 28.91549782 15.18132993 28.91549782 -5.21875 10.09375 C-10.71720172 8.5814424 -16.45513841 8.15592883 -21.78515625 10.42578125 C-37.93661492 21.39478369 -45.64087996 45.53189401 -50.51953125 63.4609375 C-50.8926694 64.77657115 -51.26762507 66.09169087 -51.64453125 67.40625 C-51.93328125 68.41429687 -52.22203125 69.42234375 -52.51953125 70.4609375 C-55.81953125 70.4609375 -59.11953125 70.4609375 -62.51953125 70.4609375 C-61.97806239 63.2660773 -60.37817319 56.91462269 -58.08203125 50.0859375 C-57.73148682 49.04171631 -57.38094238 47.99749512 -57.01977539 46.92163086 C-50.72289948 28.85095901 -41.06888999 8.08315579 -23.14453125 -1.0390625 C-15.39452939 -4.05819366 -7.51121374 -3.36750759 0 0 Z " fill="#47598C" transform="translate(315.51953125,83.5390625)"/>
<path d="M0 0 C20.03910475 11.56222063 30.31609765 39.1385962 36.73828125 60.2890625 C37.51171875 63.44921875 37.51171875 63.44921875 37.51171875 67.44921875 C34.21171875 67.44921875 30.91171875 67.44921875 27.51171875 67.44921875 C27.12802124 66.35589233 27.12802124 66.35589233 26.73657227 65.24047852 C17.12172089 34.86224617 17.12172089 34.86224617 -2.80078125 10.82421875 C-7.8236123 8.9512987 -12.1918462 8.67765917 -17.48828125 9.44921875 C-25.94899983 13.35416579 -31.37889076 22.21501003 -35.48828125 30.26171875 C-35.90980469 31.07487549 -36.33132812 31.88803223 -36.765625 32.72583008 C-42.35739258 43.79357825 -46.6458906 55.38272381 -49.48828125 67.44921875 C-53.11828125 67.44921875 -56.74828125 67.44921875 -60.48828125 67.44921875 C-55.30756446 44.53216564 -46.74552801 15.56874905 -26.4140625 1.6328125 C-17.67040288 -3.74107972 -9.34209496 -4.17974421 0 0 Z " fill="#46598C" transform="translate(194.48828125,148.55078125)"/>
<path d="M0 0 C1.65 0 3.3 0 5 0 C5.97786424 5.03478862 6.24138339 9.95446276 6.4375 15.0625 C6.74782123 22.19594342 7.26625932 29.27300729 8 36.375 C8.85859457 44.72942336 9.36121615 53.06167732 9.65820312 61.45458984 C9.83607579 66.2725794 10.19331854 71.00646679 10.76586914 75.79296875 C11.16565991 79.56159081 11.28608832 83.33970792 11.4375 87.125 C11.77056891 94.60493744 12.31327817 102.0445214 13 109.5 C13.66333914 116.70712261 14.19065123 123.89397246 14.5 131.125 C14.7904834 137.9042909 15.30699751 144.62513062 16 151.375 C16.74170782 158.60463573 17.21682166 165.80086132 17.5 173.0625 C17.58624361 174.88937021 17.673479 176.71619387 17.76171875 178.54296875 C17.93740257 182.21390519 18.02821332 185.87624881 18.08203125 189.55078125 C18.17512809 198.66105851 18.17512809 198.66105851 22.09765625 206.53125 C24.63217856 208.21380208 27.18616902 209.57170201 29.92480469 210.88720703 C34.3758633 213.27402175 38.3985952 216.3789026 42.5 219.3125 C44.21809398 220.5178627 45.93680956 221.72234004 47.65625 222.92578125 C49.10806538 223.94498976 50.55625037 224.9693978 52 226 C53.12438477 226.77573364 53.12438477 226.77573364 54.27148438 227.56713867 C54.84189453 228.03998291 55.41230469 228.51282715 56 229 C56 229.66 56 230.32 56 231 C55.34 231 54.68 231 54 231 C54 231.66 54 232.32 54 233 C49.33090015 231.41982663 45.67508796 228.87695208 41.6875 226.0625 C40.27484326 225.07797622 38.86207946 224.09360605 37.44921875 223.109375 C36.7226709 222.60083984 35.99612305 222.09230469 35.24755859 221.56835938 C31.51273939 218.96218095 27.75541576 216.38886524 24 213.8125 C22.64572879 212.88166249 21.29155231 211.95068714 19.9375 211.01953125 C18.4834375 210.01986328 18.4834375 210.01986328 17 209 C12.88373982 210.69493066 9.80032927 213.59839255 6.5 216.5 C5.25568211 217.57867177 4.01088123 218.65678662 2.765625 219.734375 C2.13978516 220.27771484 1.51394531 220.82105469 0.86914062 221.38085938 C-1.98821739 223.85604202 -4.86144204 226.31132869 -7.75 228.75 C-8.71421875 229.56984375 -9.6784375 230.3896875 -10.671875 231.234375 C-13 233 -13 233 -15 233 C-15 232.34 -15 231.68 -15 231 C-15.66 231 -16.32 231 -17 231 C-15.70118388 228.08303801 -14.41209595 226.2135349 -11.98046875 224.15234375 C-11.37589844 223.63575195 -10.77132813 223.11916016 -10.1484375 222.58691406 C-9.17777344 221.7704541 -9.17777344 221.7704541 -8.1875 220.9375 C-7.19556641 220.0727002 -7.19556641 220.0727002 -6.18359375 219.19042969 C-2.40557568 215.91891118 1.40065932 212.91445977 5.61010742 210.21606445 C8.41471891 208.04041635 11.04482482 205.9795414 13 203 C13.28032905 200.09371573 13.27145558 198.05702795 12.90625 195.234375 C12.76269668 193.71656327 12.62014896 192.19865616 12.47851562 190.68066406 C12.39641846 189.90565552 12.31432129 189.13064697 12.22973633 188.33215332 C11.86543619 184.63398425 11.68886271 180.92926711 11.5 177.21875 C11.41771891 175.76556504 11.33438539 174.31243929 11.25 172.859375 C11.12373106 170.66347915 10.99818017 168.46755584 10.875 166.27148438 C10.39380064 156.88429069 10.39380064 156.88429069 9.5 147.53125 C8.53504385 139.63821027 8.30842181 131.64797447 7.875 123.7109375 C7.28900863 112.82049046 7.28900863 112.82049046 6.21435547 101.96972656 C5.81310987 98.28265426 5.71067086 94.57927155 5.5625 90.875 C5.2294312 83.39506507 4.6867874 75.95547268 4 68.5 C3.23985456 60.24818355 2.67301484 52.01287103 2.34179688 43.73242188 C2.18878458 40.07574019 1.96076727 36.47233036 1.5078125 32.83984375 C0.74660324 26.39657571 0.63969188 19.91758406 0.4375 13.4375 C0.39431641 12.14263672 0.35113281 10.84777344 0.30664062 9.51367188 C0.20132615 6.34253616 0.09919383 3.17133207 0 0 Z " fill="#FDF6F5" transform="translate(379,155)"/>
<path d="M0 0 C1.65 0 3.3 0 5 0 C5.72021752 4.66469059 6.1924896 9.255647 6.4296875 13.96875 C6.50179084 15.33789918 6.5740646 16.7070394 6.64648438 18.07617188 C6.68346436 18.79474365 6.72044434 19.51331543 6.75854492 20.25366211 C7.47222778 34.02011064 8.4002293 47.75930519 9.5 61.5 C10.51029914 74.13981815 11.37713679 86.7758675 12.0625 99.4375 C12.61584337 109.56975343 13.20162865 119.69587105 14 129.8125 C14.070979 130.772771 14.14195801 131.73304199 14.21508789 132.72241211 C14.55065226 140.72360102 14.55065226 140.72360102 18.43554688 147.32543945 C20.32324827 148.73000401 22.2589278 149.99643933 24.25 151.25 C25.69471342 152.20205907 27.13870904 153.15520816 28.58203125 154.109375 C29.31502441 154.58697266 30.04801758 155.06457031 30.80322266 155.55664062 C34.22739242 157.80643965 37.58860608 160.14011206 40.9375 162.5 C41.53401367 162.90895508 42.13052734 163.31791016 42.74511719 163.73925781 C46.88478066 166.65434199 46.88478066 166.65434199 48 170 C47.01 170.99 46.02 171.98 45 173 C43.65421875 172.00033203 43.65421875 172.00033203 42.28125 170.98046875 C38.20482412 167.96301962 34.10521534 164.97811583 30 162 C29.26861816 161.46648926 28.53723633 160.93297852 27.78369141 160.38330078 C25.63642205 158.82463753 23.47668732 157.28505726 21.3125 155.75 C20.6421875 155.26039795 19.971875 154.7707959 19.28125 154.26635742 C15.95122765 151.72093239 15.95122765 151.72093239 11.9765625 151.22290039 C8.60947037 152.54669662 6.25067343 155.21046812 3.6875 157.6875 C2.52934647 158.78069066 1.37049841 159.87314602 0.2109375 160.96484375 C-0.34239258 161.48933105 -0.89572266 162.01381836 -1.46582031 162.55419922 C-9.36676798 170 -9.36676798 170 -12 170 C-12 170.66 -12 171.32 -12 172 C-12.99 172 -13.98 172 -15 172 C-15.66 170.68 -16.32 169.36 -17 168 C-16.57332031 167.63390625 -16.14664063 167.2678125 -15.70703125 166.890625 C-10.55598275 162.4299232 -5.54328493 157.83323814 -0.56958008 153.17675781 C3.7515086 149.1539228 3.7515086 149.1539228 6.16381836 147.65966797 C8.21479793 146.14208463 8.21479793 146.14208463 8.43676758 143.68505859 C8.40220459 142.72422363 8.3676416 141.76338867 8.33203125 140.7734375 C8.2954541 139.60651367 8.25887695 138.43958984 8.22119141 137.23730469 C8.14985915 135.82474664 8.075914 134.41231922 8 133 C7.94099518 131.77851257 7.94099518 131.77851257 7.88079834 130.53234863 C7.54080772 123.55957261 7.11950884 116.59258753 6.6875 109.625 C6.62063995 108.52485565 6.55377991 107.4247113 6.4848938 106.29122925 C5.55003554 90.91573542 4.4753279 75.55668318 3.2489624 60.2019043 C2.30384617 48.34953579 1.49221051 36.49563048 0.8125 24.625 C0.76970917 23.89088898 0.72691833 23.15677795 0.68283081 22.40042114 C0.25065938 14.92869724 -0.10789955 7.48656882 0 0 Z " fill="#FDF5F5" transform="translate(264,216)"/>
<path d="M0 0 C7.75 0.875 7.75 0.875 10 2 C9.44770412 9.44432611 7.69096695 16.08616286 5.4375 23.1875 C5.07962402 24.32517822 4.72174805 25.46285645 4.35302734 26.63500977 C3.25251842 30.09585242 2.13202653 33.54934683 1 37 C0.6704834 38.00482422 0.3409668 39.00964844 0.00146484 40.04492188 C-6.5566379 59.72925269 -15.08099358 83.89710852 -34 95 C-37.82185166 96.64864189 -40.85043853 97.24409185 -45 97 C-46.1577506 93.52674819 -46.06866652 90.63932552 -46 87 C-44.845 86.649375 -43.69 86.29875 -42.5 85.9375 C-32.93988424 82.27869026 -27.86626399 74.62288109 -23 66 C-22.50886719 65.14148438 -22.01773437 64.28296875 -21.51171875 63.3984375 C-11.32183828 44.33704385 -3.96351425 21.17965325 0 0 Z " fill="#44588B" transform="translate(338,178)"/>
<path d="M0 0 C2.3515625 0.125 2.3515625 0.125 5 1 C6.3359375 3.625 6.3359375 3.625 7.375 7 C10.84843896 16.95063802 16.2933394 23.1955596 25 29 C25 30.32 25 31.64 25 33 C24.05898438 33.42410156 23.11796875 33.84820312 22.1484375 34.28515625 C12.42825225 38.80614237 6.45503004 42.85243158 2 53 C0.234375 52.85546875 0.234375 52.85546875 -2 52 C-3.859375 49.48828125 -3.859375 49.48828125 -5.75 46.3125 C-9.23757015 40.84777576 -12.5357961 37.39545181 -18 34 C-19.16773753 33.20991375 -20.334515 32.41840528 -21.5 31.625 C-22.325 31.08875 -23.15 30.5525 -24 30 C-23.78515625 28.13671875 -23.78515625 28.13671875 -23 26 C-20.99609375 24.83203125 -20.99609375 24.83203125 -18.4375 23.8125 C-8.83626707 19.28620448 -4.48897804 11.99562964 -0.8125 2.30859375 C-0.544375 1.54675781 -0.27625 0.78492188 0 0 Z " fill="#FDB413" transform="translate(428,225)"/>
<path d="M0 0 C1.8515625 0.15625 1.8515625 0.15625 4 1 C5.2734375 3.40625 5.2734375 3.40625 6.375 6.5 C10.41556856 16.87243515 15.76092931 23.84061954 25 30 C24.78515625 31.88671875 24.78515625 31.88671875 24 34 C21.99609375 35.01953125 21.99609375 35.01953125 19.4375 35.8125 C10.12590892 39.24448643 5.16466429 45.1701108 1 54 C0.01 54 -0.98 54 -2 54 C-3.4296875 52.0234375 -3.4296875 52.0234375 -4.875 49.375 C-9.43686587 41.48330503 -13.82437102 37.18205805 -21.76953125 32.7109375 C-22.50558594 32.14632812 -23.24164063 31.58171875 -24 31 C-24 29.68 -24 28.36 -24 27 C-22.93072266 26.48953125 -22.93072266 26.48953125 -21.83984375 25.96875 C-9.71010423 19.83041614 -5.16215296 12.4042943 0 0 Z " fill="#FDB513" transform="translate(204,74)"/>
<path d="M0 0 C3.84840219 1.38308718 6.93291293 3.16983002 10.2734375 5.51953125 C11.2634375 6.21240234 12.2534375 6.90527344 13.2734375 7.61914062 C14.29695313 8.34294922 15.32046875 9.06675781 16.375 9.8125 C17.39078125 10.52470703 18.4065625 11.23691406 19.453125 11.97070312 C21.42013288 13.35144048 23.38475647 14.73558237 25.34667969 16.12353516 C26.98917042 17.28512733 28.63501373 18.44201404 30.28613281 19.59130859 C31.87482613 20.7030741 33.44087925 21.84712902 35 23 C35 23.33 35 23.66 35 24 C14.54 24 -5.92 24 -27 24 C-19.43116724 16.43116724 -11.4769622 9.47507745 -3.15234375 2.75 C-1.14403815 1.17822462 -1.14403815 1.17822462 0 0 Z " fill="#EE6961" transform="translate(394,363)"/>
<path d="M0 0 C1.32 0 2.64 0 4 0 C4.27972656 0.7734375 4.55945313 1.546875 4.84765625 2.34375 C7.84291835 10.12565282 11.20896304 16.69612795 18.21484375 21.52734375 C18.80394531 22.01332031 19.39304688 22.49929688 20 23 C20 23.99 20 24.98 20 26 C19.35933594 26.268125 18.71867187 26.53625 18.05859375 26.8125 C11.57064814 29.75189712 7.04862181 33.08183111 3 39 C2.67 39.99 2.34 40.98 2 42 C0.68 42 -0.64 42 -2 42 C-3.38671875 40.0234375 -3.38671875 40.0234375 -4.6875 37.375 C-7.81452696 31.74316063 -11.48218444 29.11099696 -17 26 C-17.99 25.34 -18.98 24.68 -20 24 C-18.54267056 20.1947509 -16.84358244 19.15001193 -13.25 17.375 C-7.41115595 14.06744672 -4.89047372 9.91765904 -2 4 C-1.6184375 3.23945313 -1.236875 2.47890625 -0.84375 1.6953125 C-0.5653125 1.13585937 -0.286875 0.57640625 0 0 Z " fill="#FDB514" transform="translate(84,240)"/>
<path d="M0 0 C3.78509595 1.40370802 6.64945363 3.6178938 9.83203125 6.06640625 C11.15859052 7.06545434 12.48541594 8.06414913 13.8125 9.0625 C14.46653809 9.55862793 15.12057617 10.05475586 15.79443359 10.56591797 C19.42249131 13.29367645 23.13285932 15.9073353 26.828125 18.54296875 C27.75818359 19.26613281 27.75818359 19.26613281 28.70703125 20.00390625 C28.70703125 20.33390625 28.70703125 20.66390625 28.70703125 21.00390625 C11.21703125 21.00390625 -6.27296875 21.00390625 -24.29296875 21.00390625 C-17.55450721 13.14236779 -17.55450721 13.14236779 -14.41796875 10.50390625 C-12.2798867 8.70513741 -10.19479243 6.90954084 -8.1796875 4.97265625 C-7.49519531 4.32296875 -6.81070312 3.67328125 -6.10546875 3.00390625 C-5.49316406 2.40578125 -4.88085938 1.80765625 -4.25 1.19140625 C-2.29296875 0.00390625 -2.29296875 0.00390625 0 0 Z " fill="#EB6760" transform="translate(277.29296875,365.99609375)"/>
<path d="M0 0 C0.15855469 1.16273438 0.31710938 2.32546875 0.48046875 3.5234375 C2.12446625 14.99041053 4.64949049 25.91550808 8 37 C4.37 37 0.74 37 -3 37 C-11 13.22134387 -11 13.22134387 -11 1 C-3.375 0 -3.375 0 0 0 Z " fill="#44598C" transform="translate(248,179)"/>
<path d="M0 0 C2.24739143 2.78502772 3.70425147 5.3620262 4.97265625 8.703125 C5.31490234 9.60160156 5.65714844 10.50007812 6.00976562 11.42578125 C6.35716797 12.35777344 6.70457031 13.28976563 7.0625 14.25 C7.41376953 15.16652344 7.76503906 16.08304688 8.12695312 17.02734375 C10.1175759 22.30305856 11.75416758 27.50026312 13 33 C7.72 33 2.44 33 -3 33 C-3.18463754 25.68373739 -2.4697345 18.68429971 -1.5 11.4375 C-1.35691406 10.33341797 -1.21382812 9.22933594 -1.06640625 8.09179688 C-0.7160201 5.3938235 -0.36044731 2.6966444 0 0 Z " fill="#6AB8C8" transform="translate(209,183)"/>
</svg>
